<?xml version="1.0" encoding="utf-8"?>
<!-- Generator: Adobe Illustrator 26.0.3, SVG Export Plug-In . SVG Version: 6.00 Build 0)  -->
<svg version="1.0" id="katman_1" xmlns="http://www.w3.org/2000/svg" xmlns:xlink="http://www.w3.org/1999/xlink" x="0px" y="0px"
	 viewBox="0 0 800 600" style="enable-background:new 0 0 800 600;" xml:space="preserve">
<style type="text/css">
	.st0{fill:#464547;}
	.st1{fill:#00B5D1;}
</style>
<path class="st0" d="M200,287.8v41.3c0,10.5,5.1,15.7,15.7,15.7h4.6c10.5,0,15.7-5.1,15.7-15.7v-20.2h24.2v19.4
	c0,26.5-13.4,40.2-40.2,40.2h-5.1c-26.5,0-40.2-13.4-40.2-37.1V229.9c0-29.7,13.4-43.3,40.2-43.3h5.1c26.5,0,40.2,13.4,40.2,40.2
	v60.7H200V287.8z M200,263.5h35.6v-37.6c0-10.5-5.1-15.7-15.7-15.7h-4c-10.5,0-15.7,5.1-15.7,15.7v37.6H200z M276.7,188.8h25.1v11.4
	c6-6.3,16.3-13.4,30.5-13.4c21.4,0,31.9,14.3,31.9,35.1v111.2c0,21.1-10.5,35.1-31.9,35.1c-14.5,0-24.5-6.8-30.5-12.8v57.3h-25.1
	V188.8z M301.7,335.4c6.8,6,14.8,9.1,23.1,9.1c9.1,0,14.5-4.3,14.5-14.5V225c0-10.3-5.1-14.5-14.5-14.5c-8.3,0-16.3,3.4-23.1,9.1
	V335.4z M379.3,304.6c0-22,7.1-30.8,26.2-37.3l33.6-11.4v-29.9c0-10.5-5.1-16.3-15.7-16.3h-4c-10.5,0-15.7,5.7-15.7,16.3V251h-24.2
	v-24.2c0-26.5,13.4-40.2,40.2-40.2h4.8c26.5,0,40.2,13.4,40.2,40.2v139.4h-25.1V355c-6.8,6.6-16.3,13.1-30.5,13.1
	c-20,0-29.4-11.4-29.4-31.4v-32.2H379.3z M439.2,336.2v-58.4l-22.8,8.6c-9.1,3.7-12.3,8.3-12.3,18.5v27.1c0,8.6,4.3,12.8,12.3,12.8
	C424.1,344.5,430.9,341.9,439.2,336.2z M565.2,366.2h-25.1V223.3c0-8.8-4.3-12.8-12-12.8c-6.8,0-14.3,2.6-23.1,8.8v146.8h-25.1
	V188.8H505v11.4c7.1-6.8,16.8-13.4,30.5-13.4c12.8,0,21.4,5.1,25.9,14.5c8.8-7.7,19.4-14.5,33.9-14.5c19.4,0,29.4,12,29.4,31.4
	v148.3h-25.1V223.3c0-8.8-4.3-12.8-12-12.8c-6.8,0-14.3,2.6-23.1,8.8v146.8H565.2z"/>
<path class="st1" d="M142.9,205.1v32.8L101,277.8l41.9,39.3v33.4L78.8,290v-23.9L142.9,205.1z M720.9,266.1V290l-64.1,60.4v-33.4
	l41.9-39.3l-41.9-40.2v-32.5L720.9,266.1z"/>
</svg>
